<?xml version="1.0" encoding="utf-8"?>
<!-- Generator: Adobe Illustrator 26.0.1, SVG Export Plug-In . SVG Version: 6.00 Build 0)  -->
<svg version="1.1" id="Capa_1" xmlns="http://www.w3.org/2000/svg" xmlns:xlink="http://www.w3.org/1999/xlink" x="0px" y="0px"
	 viewBox="0 0 798.6 543.1" style="enable-background:new 0 0 798.6 543.1;" xml:space="preserve">
<style type="text/css">
	.st0{fill:#69B3E4;}
	.st1{fill:#D8CCBC;}
	.st2{fill:#FFFFFF;}
	.st3{fill:#C1D0DA;}
	.st4{fill:#202227;}
	.st5{fill:#83715A;}
	.st6{display:none;fill:#202227;}
	.st7{fill:#074568;}
	.st8{fill:#207BB7;}
	.st9{enable-background:new    ;}
	.st10{fill:#154E75;stroke:#000000;stroke-miterlimit:10;}
</style>
<g id="cat_00000138562240043027267040000003570973854923062172_">
	<g id="background">
		<g id="XMLID_1_">
			<g>
				<path class="st0" d="M666.8,85.8c9.7,56.5,13.6,292.3-3.9,343c-33.1,87.7-163.4,61.1-232.3,63.9c-71.6,2.9-196.4,9.1-249-14.3
					c-42.9-19.5-54.7-65.2-54.7-108.1c0-62.4-5.8-204.6-1.9-267c3.9-37,7.8-52.6,39-81.9C191.2-1.9,265.3,0,298.4,0
					c76,0,216.3,5.9,267,1.9C621.9-3.9,657,29.2,666.8,85.8z"/>
			</g>
		</g>
	</g>
	<g id="cat">
		<path marker-start="none" marker-end="none" class="st1" d="M262,156.5c0.9-5.4,5.9-35.6,7.3-43.3c1.1-6.1,1.2-12.9,2.5-18.5
			c1.9-8.2,9.5-69.7,17.1-73.1c18.3-8.1,42.1,14.4,59.7,27.2c19,13.8,85.7,13.5,106,0.5c12.4-8,36.1-34.3,49.6-30
			c14.8,4.8,17.6,42.3,19.3,55.4c2.6,19.8,13,101.4,7.9,116.7c-32.3,97.3-155.7,121.4-233.9,60.2c-27.4-21.4-17-34.3-31.3-59.8
			C257.3,194.6,260.7,163.9,262,156.5z"/>
		<path marker-start="none" marker-end="none" class="st1" d="M278.2,56.4l2.4-12.2c0.8-3.9,1.7-7.6,2.6-10.8l0.6-1.9l1.6,0.1
			c6,1,10.6,6.1,10.8,12.4c0.2,7.2-5.4,13.2-12.6,13.5c-1.8,0.1-3.5-0.2-5.1-0.8L278.2,56.4z"/>
		<path marker-start="none" marker-end="none" class="st1" d="M504.4,44.9c-0.2-6.3,4.1-11.7,10-13.1h0.3l1.6,3.9
			c1.8,5.3,3.2,11.4,4.2,17.2l0.6,4.1l-0.6,0.2c-0.8,0.2-1.7,0.3-2.6,0.4C510.7,57.7,504.7,52.1,504.4,44.9z"/>
		<path marker-start="none" marker-end="none" class="st2" d="M533.1,176.5c-83.1,63.6-174.7,63.3-272.3-2.5
			c21.2,106.1,73.4,188.2,142,257.6h0.8C464.1,357.5,513.2,277.3,533.1,176.5z"/>
		<path marker-start="none" marker-end="none" class="st3" d="M302.5,279.2l75.8-38.6l47.9-0.7l69.5,37.3
			c1.1,22.7-4.6,32.7-13.2,53.4c-6.9,16.6-18.4,41.4-33.7,50.6c-15.3,9.2-32.2,11.4-49.3,11.2c-16.7-0.3-35.4-0.2-51.4-6
			c-27.4-10-43.3-53.5-47.4-82.3C299.3,294.5,306.9,287.7,302.5,279.2z"/>
		<path marker-start="none" marker-end="none" class="st4" d="M533,174.8c-24.8,89.6-69.2,164.6-132,225.8
			c-64.1-59.5-107.9-137.7-141-225.8c-90.6,251.5-10.1,306.8,137.7,294.5C520.5,482.8,645.2,463.3,533,174.8z"/>
		<path marker-start="none" marker-end="none" class="st4" d="M374.5,241l26.1-19.1l26.2,18.2c1.2,12.9-6.6,17.4-15.5,21l27.3,107
			l-38,37.8l-42.1-34.3l32-109.2C381.6,259,375.3,253.3,374.5,241z"/>
		<path marker-start="none" marker-end="none" class="st1" d="M311.3,446.4c6,8.8,21,18.2,30.1,23.8c9.2,5.7,32.1,12.3,40.4-3.1
			c6.6-12.2-27.6-42.5-33.5-52.3L311.3,446.4z"/>
		<path marker-start="none" marker-end="none" class="st2" d="M320.2,459.1l40.8-32.2l-11.4-12.8l-40.8,32.2L320.2,459.1z"/>
		<path marker-start="none" marker-end="none" class="st1" d="M490.1,446.4c-6.3,8.8-21.5,18.2-30.7,23.8
			c-9.3,5.7-32.4,12.3-40.3-3.1c-6.3-12.2,28.7-42.5,34.9-52.3L490.1,446.4z"/>
		<path marker-start="none" marker-end="none" class="st2" d="M481,459.1l-40-32.2l11.7-12.8l40,32.2L481,459.1z"/>
		<path marker-start="none" marker-end="none" class="st2" d="M335.4,87.6c12.4,0,22.5,10.1,22.5,22.5s-10.1,22.5-22.5,22.5
			s-22.5-10.1-22.5-22.5S323,87.6,335.4,87.6z"/>
		<path marker-start="none" marker-end="none" class="st2" d="M466.6,87.6c12.4,0,22.5,10.1,22.5,22.5s-10.1,22.5-22.5,22.5
			s-22.5-10.1-22.5-22.5S454.2,87.6,466.6,87.6z"/>
		<path marker-start="none" marker-end="none" class="st5" d="M335.4,97c5.6,0,10.1,4.5,10.1,10.1s-4.5,10.1-10.1,10.1
			s-10.1-4.5-10.1-10.1C325.3,101.6,329.8,97,335.4,97z"/>
		<path marker-start="none" marker-end="none" class="st5" d="M465.8,97c5.6,0,10.1,4.5,10.1,10.1s-4.5,10.1-10.1,10.1
			s-10.1-4.5-10.1-10.1C455.7,101.6,460.3,97,465.8,97z"/>
		<path marker-start="none" marker-end="none" class="st5" d="M398.8,129.7c-6.4-0.2-12.5-2.4-16.8-5.7c-1.2-0.9-1.4-2.6-0.5-3.8
			c0.9-1.2,2.6-1.4,3.8-0.5c3.3,2.6,8.3,4.4,13.6,4.6c5.3,0.2,10.9-1.4,15.6-5.3c1.1-1,2.8-0.8,3.8,0.3c1,1.1,0.8,2.8-0.3,3.8
			C412.2,128,405.3,129.9,398.8,129.7z"/>
		<path marker-start="none" marker-end="none" class="st5" d="M413,152c-8.6-2.5-16.3-10.7-14.4-23.1c0.2-1.5,1.6-2.5,3.1-2.2
			c1.5,0.2,2.5,1.6,2.2,3.1c-1.5,9.4,4.2,15.2,10.6,17.1c3.3,0.9,6.5,0.8,9.1-0.4c2.4-1.1,4.3-3.2,4.9-6.7c0.3-1.5,1.7-2.4,3.1-2.2
			c1.5,0.3,2.4,1.7,2.2,3.1c-0.9,5.2-4,8.7-8,10.6C421.9,153.1,417.2,153.2,413,152z"/>
		<path marker-start="none" marker-end="none" class="st5" d="M375.3,151.3c-4-1.8-7-5.4-8-10.6c-0.3-1.5,0.7-2.9,2.2-3.1
			c1.5-0.3,2.9,0.7,3.1,2.2c0.6,3.4,2.5,5.5,4.9,6.7c2.5,1.2,5.8,1.3,9.1,0.4c6.4-1.8,12.1-7.7,10.6-17.1c-0.2-1.5,0.8-2.8,2.2-3.1
			c1.5-0.2,2.8,0.8,3.1,2.2c1.9,12.4-5.8,20.6-14.4,23.1C383.8,153.2,379.2,153.1,375.3,151.3z"/>
		<path marker-start="none" marker-end="none" class="st2" d="M474.2,149.1l-28.8-7.7c-1.4-0.4-2.3-1.8-1.9-3.3
			c0.4-1.4,1.8-2.3,3.3-1.9l28.8,7.7c1.4,0.4,2.3,1.8,1.9,3.3S475.6,149.4,474.2,149.1z"/>
		<path marker-start="none" marker-end="none" class="st2" d="M473.9,162.8l-30.3-12c-1.4-0.5-2.1-2.1-1.5-3.5
			c0.5-1.4,2.1-2.1,3.5-1.5l30.3,12c1.4,0.5,2.1,2.1,1.5,3.5C476.8,162.7,475.3,163.4,473.9,162.8z"/>
		<path marker-start="none" marker-end="none" class="st2" d="M322.5,148.3c-0.4-1.4,0.5-2.9,1.9-3.3l28.8-7.7
			c1.4-0.4,2.9,0.5,3.3,1.9s-0.5,2.9-1.9,3.3l-28.8,7.7C324.3,150.5,322.9,149.7,322.5,148.3z"/>
		<path marker-start="none" marker-end="none" class="st2" d="M322.6,162.4c-0.5-1.4,0.1-2.9,1.5-3.5l30.2-12
			c1.4-0.5,2.9,0.1,3.5,1.5c0.5,1.4-0.1,2.9-1.5,3.5l-30.2,12C324.7,164.5,323.1,163.8,322.6,162.4z"/>
		<path marker-start="none" marker-end="none" class="st2" d="M453.2,81.9V70.6c0-1.5,1.2-2.7,2.7-2.7s2.7,1.2,2.7,2.7v11.3
			c0,1.5-1.2,2.7-2.7,2.7S453.2,83.4,453.2,81.9z"/>
		<path marker-start="none" marker-end="none" class="st2" d="M463.4,80.1V68.8c0-1.5,1.2-2.7,2.7-2.7s2.7,1.2,2.7,2.7v11.3
			c0,1.5-1.2,2.7-2.7,2.7C464.6,82.8,463.4,81.6,463.4,80.1z"/>
		<path marker-start="none" marker-end="none" class="st2" d="M346.9,81.9V70.6c0-1.5,1.2-2.7,2.7-2.7s2.7,1.2,2.7,2.7v11.3
			c0,1.5-1.2,2.7-2.7,2.7C348.1,84.6,346.9,83.4,346.9,81.9z"/>
		<path marker-start="none" marker-end="none" class="st2" d="M336.7,80.1V68.8c0-1.5,1.2-2.7,2.7-2.7s2.7,1.2,2.7,2.7v11.3
			c0,1.5-1.2,2.7-2.7,2.7S336.7,81.6,336.7,80.1z"/>
		<path marker-start="none" marker-end="none" class="st6" d="M539,447.5c-19.7-9.5-31.8-26.8-37.2-45.3
			c-5.3-18.4-4.4-38.8,2.7-56.7c3.7-9.3,14.3-13.9,23.7-10.2c9.3,3.7,13.9,14.3,10.2,23.7c-4.1,10.3-4.7,22.4-1.6,33
			c3,10.4,9.2,18.4,18,22.6c12.4,5.9,26.3,2.3,34.8-6.6c7.7-7.9,10.4-19.2,1.1-31.6c-6.1-8-4.4-19.5,3.6-25.5
			c8-6.1,19.5-4.4,25.5,3.6c21.1,28,15,59.1-4,78.8C597.7,452.1,567.3,461.1,539,447.5z"/>
	</g>
</g>
<g id="ribbon">
	<g id="XMLID_2_">
		<g>
			<polygon class="st0" points="798.6,384.5 735.4,464.8 798.6,543 596.1,543 596.1,384.5 			"/>
		</g>
	</g>
	<g>
		<g id="XMLID_6_">
			<g>
				<polygon class="st7" points="694,509.9 596.1,543.1 596.1,509.4 				"/>
			</g>
		</g>
	</g>
	<g id="XMLID_3_">
		<g>
			<polygon class="st0" points="198.8,384.5 198.8,543 0,543 63.2,464.8 0,384.5 			"/>
		</g>
	</g>
	<g id="XMLID_5_">
		<g>
			<rect x="98.6" y="351.2" class="st8" width="597.8" height="158.5"/>
		</g>
	</g>
	<g id="XMLID_7_">
		<g>
			<polygon class="st7" points="198.8,509.4 198.8,543.1 100.9,509.9 			"/>
		</g>
	</g>
	<g id="XMLID_4_">
		<g>
			<path class="st0" d="M670.1,378.7v105.4c0,4.7-5.5,8.4-12.2,8.4H137.7c-6.8,0-12.2-3.8-12.2-8.4V378.7c0-4.7,5.5-8.4,12.2-8.4
				h520.2C664.6,370.3,670.1,374.1,670.1,378.7z"/>
		</g>
	</g>
</g>
<g id="text" class="st9">
	<path class="st10" d="M304.6,385.3c0,7.9-3.9,17.2-11.6,27.9c-6,8.4-14,15.2-23.9,20.3c-10,5.1-19.1,7.7-27.5,7.7
		c-3.1,0-5.7-0.3-7.8-1c-4.2,5.4-10.9,13.9-20.3,25.3c3.5,5,9.8,9.7,19,14.1c9.1,4.4,17,6.6,23.6,6.6c6.6,0,11.5-0.9,14.7-2.7
		c4.4-2.3,6.6-5.6,6.6-9.9c0-1.1-0.1-2.1-0.3-3.2c-0.2-1,0.1-1.5,1-1.5c0.8,0,1.6,0.7,2.3,2.2c0.6,1.5,1,2.7,1,3.8
		c0,3.5-1.9,6.8-5.6,9.9c-4.7,3.8-11.1,5.7-19.2,5.7c-8.1,0-16.5-1.9-25.2-5.7s-15.9-9-21.4-15.5c-8,8-15.6,12-22.8,12
		c-2.2,0-4.1-0.4-5.7-1.2c-3.5-2-5.3-5.8-5.3-11.4s2.3-12.5,7-20.7s8.3-12.5,11-13.1c1.8,0,3.8,2.1,6.1,6.2l9.4,18.3
		c5.3-7,10.8-14.6,16.7-23c-8.2-3.7-12.3-9-12.3-16c0-5.8,2.3-10.5,7.1-14.1c2.6-1.9,5.4-2.9,8.3-2.9c2.9,0,5.2,1.6,6.7,4.7
		c0.3,0.6,0.3,1,0.1,1.1c-0.3,0.2-0.4,0.2-0.5,0.1c-2-2-4.2-3-6.5-3c-0.1,0-0.2,0-0.3,0c-2.9,0-5.4,1.6-7.6,4.6
		c-2.2,3.1-3.2,6-3.2,8.6c0,0.3,0,0.6,0,0.9c0,5.2,3.6,9.7,10.8,13.4c1.2-1.7,3.1-4.5,5.8-8.5c2.6-3.9,4.7-7,6.2-9.2
		c19.9-29.2,36.5-43.8,49.6-43.8C299.9,372.3,304.6,376.6,304.6,385.3z M206,464.4c-2.4-3.3-4.9-7.5-7.5-12.7
		c-2.6-5.1-4.3-8.2-5.2-9.2s-1.4-1.5-1.7-1.5s-0.5,0-0.6,0c-1.8,0.3-3.8,3.5-5.8,9.6c-2.1,6.1-3.2,12.1-3.2,17.9s1.8,8.8,5.4,8.8
		c2.6,0,5.7-1.4,9.4-4.1C200.5,470.5,203.5,467.6,206,464.4z M291.2,374.8c-5,0-11.2,4.2-18.6,12.6c-5.1,5.9-11.1,13.8-17.9,23.8
		c-6.9,10-13,18.5-18.5,25.6c1.3,0.3,2.7,0.4,4.3,0.4c7,0,15-2.4,24-7.2c9-4.8,16.1-10.8,21.3-18.2c9.1-12.7,13.6-22.3,13.6-29
		c0-4-1.8-6.5-5.3-7.6C293.3,374.9,292.3,374.8,291.2,374.8z"/>
	<path class="st10" d="M288.1,476.1c-1.1,0-2.1-0.2-3-0.5c-6.4-1.8-9.6-5.4-9.6-10.8c0-7,4.4-15.1,13.2-24.3
		c8.8-9.2,16.7-13.8,23.7-13.8c2.3,0,4.2,0.6,5.6,1.9s2.2,2.8,2.2,4.6c0,5.6-4.2,11-12.7,16c-8.5,5.1-15.3,7.7-20.6,7.7
		c-0.8,0-1.5-0.1-2.1-0.3c-1.5,2.7-2.3,5.5-2.3,8.5c0,5.2,2.5,7.8,7.4,7.8c5,0,11.4-3.3,19.3-10c6.1-4.9,11.3-10.1,15.6-15.6
		c0.9-1.2,1.7-1.8,2.3-1.8c0.6,0,1,0.3,1,0.9s-0.4,1.5-1.2,2.5c-5.4,7.1-11.9,13.4-19.5,18.9C299.8,473.3,293.4,476.1,288.1,476.1z
		 M316.4,432.9c0-1.2-1.3-1.8-3.8-1.8s-6.2,2-10.9,5.8c-6.3,5.2-11.2,10.7-14.7,16.4c0.6,0.2,1.2,0.3,1.9,0.3c3.8,0,8.9-2,15.2-6.1
		c6.3-4,10.3-8.5,11.9-13.3C316.3,433.7,316.4,433.3,316.4,432.9z"/>
	<path class="st10" d="M355.6,471.9c-2.9,1.7-6.5,2.5-10.7,2.5c-4.3,0-7.5-1.4-9.8-4.2s-4.2-7.2-5.8-13.3c-1.8,1.8-3,2.7-3.8,2.7
		c-0.5,0-0.8-0.3-0.8-1s0.3-1.3,0.8-1.8c3.3-4.1,8.9-10,16.8-17.7l18.9-17.7c5.4-5.1,8.6-7.7,9.6-7.7c3.2,0,4.8,1.2,4.8,3.6
		c0,1.2-0.5,2.4-1.4,3.5c-1,1.2-1.6,2.1-2.1,2.7c-0.4,0.7-0.9,1.3-1.4,1.9c-1.8,3.1-3.6,9.5-5.5,19.2s-3.3,16.5-4.3,20.3
		c8.3-0.1,16.8-5.5,25.6-16.2c1-1,1.7-1.5,2.3-1.5c0.5,0,0.8,0.3,0.8,1s-0.4,1.5-1.4,2.6c-5.8,6.8-11.2,11.6-16.2,14.3
		c-3,1.5-6.9,2.8-11.7,3.8L355.6,471.9z M335.3,455.2c0,3.4,1.1,6.2,3.4,8.3c2.3,2.2,4.8,3.2,7.6,3.2c2.8,0,5-0.5,6.5-1.7
		c2-1.1,4-5.7,5.9-13.8c2-8.1,3.1-15.2,3.5-21.5l0.6-5.1c-5.5,4.1-11.4,9.4-17.6,15.9c-6.3,6.5-9.5,10.8-9.7,12.9
		C335.4,454.1,335.3,454.7,335.3,455.2z"/>
	<path class="st10" d="M396.7,466.6c0,3,1.6,4.5,4.9,4.5s7.5-1.7,12.8-5.3c5.2-3.5,10.2-8.3,15.2-14.3c1.2-1.6,2.1-2.4,2.8-2.4
		c0.7,0,1,0.3,1,0.9s-2.1,3.2-6.1,7.8c-10,11-18.4,16.5-25.1,16.5c-3.3,0-6.1-0.8-8.4-2.3s-3.5-3.9-3.5-7.2c0-3.2,0.8-7,2.6-11.3
		c2.9-6.8,7.5-15.3,13.9-25.7c11.7-19,20-28.5,24.9-28.5c1,0,2,0.4,3.1,1.1c1.1,0.8,1.6,1.6,1.7,2.5c-2.3,3.1-6.7,9.1-13.3,17.8
		c-6.6,8.8-11.1,15.1-13.6,19s-4.4,6.7-5.6,8.6c-1.3,1.9-2.2,3.4-2.8,4.4c-0.6,1-1.3,2.4-2.1,4.1
		C397.5,460.4,396.7,463.6,396.7,466.6z"/>
	<path class="st10" d="M441.7,475.8c-5.1,0-7.6-3.3-7.6-9.9c0-5.4,2.9-12.9,8.8-22.4s10.7-14.4,14.3-14.5c1,0,2.1,0.4,3.4,1.2
		c1.2,0.8,1.9,1.6,1.9,2.4c-0.5,0.7-1.1,1.5-1.8,2.3c-0.7,0.9-1.5,1.8-2.3,2.8s-1.9,2.4-3.3,4.3s-2.8,3.6-4,5.3
		c-7.5,9.7-11.3,16.4-11.3,20c0,3.7,1.2,5.5,3.8,5.5c2.1,0,4.9-1.1,8.5-3.5c8.4-5.2,15-10.9,20-17.1c1.8-2.3,3-3.4,3.7-3.4
		c0.6,0,1,0.4,1,1.2c0,0.8-1.2,2.4-3.5,4.8s-4.1,4.3-5.5,5.7c-1.3,1.4-2.3,2.3-2.8,2.8s-1.4,1.3-2.8,2.5c-1.4,1.3-2.4,2.1-3.1,2.6
		s-1.7,1.3-3,2.3s-2.5,1.7-3.5,2.2s-2.2,1-3.5,1.6C447.1,475.3,444.6,475.8,441.7,475.8z M473.1,414.3c1.3,1,2,2.1,2,3.4
		s-0.6,2.4-1.9,3.4s-2.6,1.4-4.1,1.4s-2.9-0.5-4.1-1.7c-1.3-1.1-1.9-2.3-1.9-3.8c0-2.8,1.9-4.2,5.7-4.2
		C470.3,412.9,471.7,413.4,473.1,414.3z"/>
	<path class="st10" d="M545.6,433.3c0,0.6-4,7.7-11.8,21.3c-7.7,14.7-13.7,24.9-17.9,30.8c-9.1,13-17.6,19.5-25.6,19.5
		c-3,0-5.8-1-8.3-2.9c-2.6-2-3.8-3.9-3.8-5.9c0-1.9,0.5-2.9,1.3-2.9c0.1,0,1.1,1.3,3.1,3.8s4.2,3.8,6.8,3.8c8,0,17.1-9.1,27.3-27.2
		c6.3-11.3,10.6-20.4,12.9-27.5c-1.2,1.4-3.3,3.5-6.2,6.2c-3,2.7-4.8,4-5.4,4c-0.6,0-1-0.1-1-0.5c0-0.9,0.8-2,2.4-3.4
		c1.6-1.4,3.8-4.1,6.5-8s4.3-6,4.8-6.5l5-5.3c2-1.9,4.2-2.8,6.5-2.8C544.4,430,545.6,431.1,545.6,433.3z M552.7,414.1
		c1.3,1,2,2.1,2,3.4s-0.6,2.4-1.9,3.3c-1.3,1-2.6,1.4-4.1,1.4s-2.9-0.5-4.1-1.6c-1.3-1.1-1.9-2.3-1.9-3.7c0-2.9,1.9-4.3,5.7-4.3
		C550,412.6,551.4,413.1,552.7,414.1z"/>
	<path class="st10" d="M584.6,471.9c-2.9,1.7-6.5,2.5-10.7,2.5c-4.3,0-7.5-1.4-9.8-4.2s-4.2-7.2-5.8-13.3c-1.8,1.8-3,2.7-3.8,2.7
		c-0.5,0-0.8-0.3-0.8-1s0.3-1.3,0.8-1.8c3.3-4.1,8.9-10,16.8-17.7l18.9-17.7c5.4-5.1,8.6-7.7,9.6-7.7c3.2,0,4.8,1.2,4.8,3.6
		c0,1.2-0.5,2.4-1.4,3.5c-1,1.2-1.7,2.1-2.1,2.7c-0.5,0.7-0.9,1.3-1.4,1.9c-1.8,3.1-3.6,9.5-5.5,19.2s-3.3,16.5-4.3,20.3
		c8.3-0.1,16.8-5.5,25.7-16.2c1-1,1.7-1.5,2.3-1.5c0.5,0,0.8,0.3,0.8,1s-0.5,1.5-1.4,2.6c-5.8,6.8-11.2,11.6-16.2,14.3
		c-3,1.5-6.9,2.8-11.7,3.8L584.6,471.9z M564.4,455.2c0,3.4,1.1,6.2,3.4,8.3c2.3,2.2,4.8,3.2,7.6,3.2s5-0.5,6.5-1.7
		c2-1.1,4-5.7,5.9-13.8c2-8.1,3.1-15.2,3.5-21.5l0.6-5.1c-5.5,4.1-11.4,9.4-17.6,15.9c-6.3,6.5-9.5,10.8-9.7,12.9
		C564.4,454.1,564.4,454.7,564.4,455.2z"/>
</g>
</svg>
